<?xml version="1.0" standalone="no"?>
<!DOCTYPE svg PUBLIC "-//W3C//DTD SVG 20010904//EN"
 "http://www.w3.org/TR/2001/REC-SVG-20010904/DTD/svg10.dtd">
<svg version="1.0" xmlns="http://www.w3.org/2000/svg"
 width="16.000000pt" height="16.000000pt" viewBox="0 0 16.000000 16.000000"
 preserveAspectRatio="xMidYMid meet">
<metadata>
Created by potrace 1.11, written by Peter Selinger 2001-2013
</metadata>
<g transform="translate(0.000000,16.000000) scale(0.002500,-0.002500)"
fill="#000000" stroke="none">
<path d="M5454 5617 c-23 -18 -52 -39 -64 -47 -12 -8 -28 -19 -34 -25 -40 -34
-183 -115 -205 -115 -7 0 -9 10 -5 27 6 24 5 26 -17 19 -13 -4 -31 -9 -40 -11
-9 -2 -54 -13 -100 -25 -112 -28 -155 -38 -209 -45 -24 -3 -49 -10 -55 -14 -5
-5 -35 -11 -65 -15 -30 -3 -70 -8 -89 -12 -22 -4 -32 -3 -27 4 3 6 -10 11 -34
14 -37 3 -55 -5 -28 -14 7 -3 8 -10 3 -17 -5 -9 -19 -11 -41 -8 -38 6 -55 -12
-114 -118 -54 -96 -180 -357 -180 -372 0 -3 -17 -25 -37 -48 -21 -22 -45 -52
-53 -64 -8 -13 -19 -29 -25 -35 -5 -6 -21 -31 -34 -56 -25 -46 -76 -100 -95
-100 -6 0 -5 -5 2 -12 31 -31 11 -33 -263 -31 -227 3 -282 0 -311 -12 -20 -8
-47 -15 -59 -15 -24 0 -85 -44 -85 -62 0 -5 9 -12 20 -15 20 -5 27 -18 13 -25
-5 -1 -27 -32 -51 -68 -49 -74 -52 -107 -9 -102 27 3 27 3 27 -61 0 -65 20
-124 45 -134 8 -2 22 0 34 6 15 9 23 7 35 -5 9 -8 16 -18 16 -22 0 -18 -266
-102 -324 -102 -26 0 -61 -7 -79 -17 -21 -11 -62 -17 -122 -19 -111 -3 -291
-20 -325 -31 -33 -11 -62 -32 -83 -63 -17 -25 -23 -61 -9 -59 32 5 46 -33 21
-58 -20 -20 18 -63 55 -63 26 0 39 -9 73 -52 23 -29 60 -71 83 -93 22 -21 40
-43 40 -47 0 -4 -13 -8 -30 -8 -20 0 -30 5 -30 15 0 8 -4 15 -10 15 -5 0 -10
-7 -10 -15 0 -12 -15 -15 -77 -14 -197 2 -349 36 -529 120 -22 10 -51 20 -65
20 -26 2 -108 -18 -124 -31 -16 -12 -55 -19 -55 -10 0 5 5 12 10 15 14 9 12
76 -6 196 -8 57 -13 111 -11 121 3 9 -4 24 -14 34 -10 9 -17 20 -14 24 2 4 -7
6 -20 4 -14 -1 -27 2 -31 7 -9 15 -44 10 -44 -6 0 -33 -18 -12 -44 53 -34 82
-64 123 -119 160 -46 32 -125 61 -144 55 -26 -9 -13 -54 28 -98 l42 -45 -32 6
c-24 5 -31 3 -31 -10 0 -18 -15 -22 -25 -6 -3 5 -32 22 -63 36 -31 14 -69 32
-84 40 -14 8 -35 14 -46 14 -11 0 -24 6 -30 13 -17 20 -173 11 -190 -11 -16
-21 -15 -37 3 -56 9 -8 12 -22 8 -32 -4 -11 0 -22 12 -30 10 -8 15 -14 9 -14
-133 -6 -156 -13 -152 -48 3 -26 5 -27 65 -27 60 0 62 -1 66 -28 3 -25 -1 -31
-32 -45 -64 -29 -155 -94 -210 -151 -66 -67 -181 -218 -181 -237 0 -8 -7 -17
-15 -20 -8 -4 -12 -10 -10 -15 3 -5 -1 -22 -10 -38 -8 -17 -15 -40 -15 -51 0
-28 35 -77 60 -85 21 -7 88 27 103 52 4 7 15 13 22 13 8 0 15 4 15 8 0 5 19
23 42 40 24 17 55 42 70 56 15 14 31 26 37 26 5 0 11 3 13 8 1 4 23 20 47 35
l43 29 20 -21 c10 -12 23 -19 29 -16 23 15 5 -15 -36 -57 -33 -35 -45 -55 -45
-78 0 -22 5 -30 18 -30 23 0 42 14 128 97 65 62 149 121 198 139 16 6 17 5 7
-14 -11 -20 -9 -22 18 -22 16 0 33 -4 36 -10 10 -16 44 -11 74 10 33 25 128
40 197 31 36 -5 63 -17 93 -40 22 -18 41 -36 41 -41 0 -4 -12 -16 -28 -25 -67
-44 -89 -87 -78 -155 7 -42 48 -182 71 -240 24 -58 47 -163 43 -190 -2 -15 1
-32 8 -38 47 -43 5 -420 -65 -577 -26 -58 -26 -53 1 -57 15 -2 24 -12 29 -33
4 -16 13 -43 22 -60 13 -27 41 -89 83 -183 8 -18 14 -42 14 -53 0 -16 -5 -18
-25 -13 -15 4 -25 2 -26 -5 -1 -6 -3 -23 -4 -38 -5 -54 -27 -153 -35 -153 -4
0 -6 -20 -6 -44 1 -57 -11 -70 -48 -51 -16 8 -37 15 -47 15 -10 0 -33 6 -51
14 -18 8 -93 38 -167 66 -74 29 -162 65 -196 81 -34 16 -67 29 -73 29 -7 0
-39 13 -72 29 -95 46 -114 48 -145 13 -16 -18 -41 -33 -62 -37 -20 -3 -58 -18
-86 -33 -53 -29 -197 -166 -197 -189 0 -7 -4 -13 -8 -13 -5 0 -15 -12 -22 -27
-22 -45 -21 -54 5 -47 23 6 23 5 18 -54 -5 -58 -5 -60 28 -84 42 -31 91 -48
140 -48 50 0 69 8 69 31 0 10 5 19 11 19 7 0 9 -12 5 -35 -9 -47 6 -70 58 -90
38 -15 57 -15 147 -6 114 11 237 32 371 62 49 11 96 19 105 17 10 -1 32 2 48
9 17 6 64 16 105 22 41 7 94 16 118 21 23 6 76 10 117 10 40 0 76 4 79 9 5 7
66 21 111 25 6 1 8 21 7 46 -4 43 -3 44 15 29 10 -8 63 -30 118 -48 55 -18
125 -45 155 -60 30 -15 68 -31 83 -35 15 -3 27 -11 27 -16 0 -6 12 -10 27 -10
14 0 34 -6 42 -14 21 -19 120 -56 148 -56 12 0 24 -4 27 -9 11 -17 189 -36
240 -27 21 4 38 16 46 31 8 14 25 28 39 31 14 3 34 8 43 11 28 7 44 75 29 126
-7 23 -19 49 -26 57 -7 8 -20 32 -30 53 -21 45 -104 122 -142 132 -35 8 -63
33 -63 55 0 20 -19 40 -38 40 -8 0 -25 9 -39 20 -18 14 -41 20 -77 20 -69 0
-188 -18 -200 -30 -6 -6 -25 -10 -43 -10 -18 0 -41 -4 -51 -9 -38 -20 -179
-43 -267 -45 l-93 -1 -9 -35 -9 -35 -23 75 c-13 41 -23 92 -22 112 0 26 -3 37
-12 35 -8 -1 -13 16 -15 52 -2 30 -10 60 -18 68 -9 9 -14 35 -14 68 0 29 -7
66 -15 81 -20 39 -20 98 0 90 8 -3 21 1 29 9 8 8 23 15 34 15 10 0 24 11 30
25 7 15 8 25 2 25 -14 0 -12 58 1 62 8 3 12 46 11 143 -1 77 3 169 8 205 18
124 26 165 35 180 5 8 10 22 12 30 1 8 14 54 30 101 l28 86 65 11 c73 11 473
8 590 -5 41 -5 85 -14 97 -21 12 -6 39 -12 60 -12 21 0 79 -7 128 -16 160 -27
209 -35 265 -42 39 -5 55 -11 55 -22 0 -8 4 -20 8 -26 10 -17 80 2 140 38 35
21 47 24 47 13 0 -8 7 -15 16 -15 26 0 88 32 106 54 14 17 20 19 36 9 21 -12
32 -8 48 21 7 14 22 20 45 20 30 1 34 4 34 28 -1 14 3 24 8 21 9 -5 2 -186 -8
-246 -5 -25 19 -189 30 -207 8 -13 44 1 60 23 12 18 18 19 57 9 39 -10 45 -9
68 12 14 12 41 30 60 40 55 26 68 35 191 134 64 51 162 137 217 192 56 55 103
100 106 100 3 0 6 -10 6 -22 0 -13 16 -46 36 -75 39 -57 39 -83 0 -83 -23 0
-36 -21 -36 -62 0 -21 39 -25 58 -6 31 31 -11 -143 -43 -182 -7 -8 -16 -25
-19 -37 -4 -13 -11 -23 -16 -23 -4 0 -11 -16 -15 -36 -7 -41 14 -74 47 -74 70
0 198 127 198 197 0 13 5 23 11 23 5 0 8 -4 5 -9 -11 -18 47 -44 93 -42 45 1
66 10 45 18 -22 8 -2 44 28 50 51 10 58 53 15 100 -62 69 62 12 131 -60 26
-27 70 -72 97 -101 64 -66 106 -79 246 -74 125 4 163 18 167 64 3 26 -1 32
-20 37 -24 6 -98 31 -133 46 -11 5 -51 18 -90 31 -160 51 -317 142 -401 233
-58 63 -94 105 -94 112 0 5 -32 51 -93 132 -71 96 -114 89 -266 -43 -20 -17
-65 -50 -101 -74 -36 -24 -67 -46 -70 -49 -15 -18 -145 -81 -165 -81 -8 0 -15
-4 -15 -10 0 -5 -7 -10 -15 -10 -8 0 -32 -9 -52 -20 -21 -11 -45 -20 -55 -20
-9 0 -18 -4 -20 -9 -1 -4 -13 -11 -25 -15 -19 -6 -23 -2 -28 28 -11 55 1 229
17 262 9 16 13 35 11 42 -9 24 7 84 21 79 8 -3 11 4 8 24 -6 43 6 82 23 75 8
-3 15 -1 15 3 0 5 -5 11 -11 13 -7 2 -9 13 -4 27 6 19 13 22 40 19 29 -3 33
-1 33 22 0 14 -5 31 -10 37 -6 7 -8 22 -5 32 3 11 0 22 -6 24 -9 3 -8 11 1 31
10 24 9 30 -14 56 -31 35 -81 54 -118 44 -48 -12 -28 15 47 64 82 53 106 68
127 79 8 4 21 12 27 19 10 10 19 9 44 -3 21 -11 50 -14 95 -11 50 3 64 1 64
-10 0 -8 14 -31 30 -52 17 -21 30 -42 30 -47 0 -5 13 -23 30 -40 30 -30 131
-69 195 -75 26 -3 34 -12 59 -61 37 -73 130 -169 191 -196 33 -15 68 -21 116
-21 66 0 69 1 75 27 4 15 2 46 -4 70 -25 92 -4 128 46 80 15 -14 44 -33 65
-42 36 -15 37 -15 37 5 0 53 -52 172 -93 213 -18 18 -18 19 2 34 12 8 20 22
19 31 -2 13 4 17 24 15 24 -1 28 3 34 33 3 19 4 50 1 68 -3 19 -1 38 5 44 21
21 3 53 -42 77 -80 42 -288 125 -314 125 -9 0 -24 4 -34 9 -47 25 -128 51
-158 51 -29 0 -34 4 -34 23 0 12 -3 31 -5 42 -4 14 6 32 30 58 19 21 35 43 35
48 0 5 6 20 14 32 8 12 17 55 21 95 4 39 12 72 18 72 5 0 37 -13 71 -29 34
-15 99 -43 146 -60 47 -18 93 -37 102 -42 10 -5 36 -9 59 -9 32 0 42 4 46 20
7 27 32 25 42 -2 l8 -22 12 22 c9 16 21 22 48 22 20 0 50 4 67 9 17 5 51 15
76 22 58 16 84 37 69 55 -8 10 -8 15 2 18 179 52 283 107 294 153 4 20 30 45
82 83 90 66 111 93 92 116 -8 10 -23 14 -43 11 -40 -6 -97 -28 -114 -44 -7 -7
-21 -13 -29 -13 -9 0 -24 -6 -32 -13 -9 -7 -42 -23 -74 -36 -55 -22 -59 -22
-93 -6 -22 10 -46 14 -64 10 -52 -11 -363 -14 -435 -4 -101 15 -174 29 -220
42 -22 6 -49 12 -60 12 -11 1 -25 2 -31 3 -10 2 -9 110 1 120 2 3 30 6 62 7
95 5 294 50 348 79 17 9 34 16 39 16 6 0 20 10 32 21 17 16 21 26 14 39 -8 14
1 24 47 55 62 41 183 157 202 192 6 12 11 65 11 117 l0 96 -32 -1 c-21 0 -48
-12 -74 -32z"/>
<path d="M680 3880 c0 -5 5 -10 11 -10 5 0 7 5 4 10 -3 6 -8 10 -11 10 -2 0
-4 -4 -4 -10z"/>
<path d="M5179 3474 c-11 -14 -9 -23 15 -67 39 -71 45 -77 72 -77 30 0 39 30
20 72 -31 70 -81 104 -107 72z"/>
<path d="M3880 2540 c0 -5 4 -10 9 -10 6 0 13 5 16 10 3 6 -1 10 -9 10 -9 0
-16 -4 -16 -10z"/>
<path d="M1960 2202 c0 -10 -6 -24 -12 -31 -11 -10 -10 -11 5 -6 15 6 26 55
12 55 -3 0 -5 -8 -5 -18z"/>
</g>
</svg>
